<?xml version="1.0" encoding="UTF-8" standalone="no"?>
<!DOCTYPE svg PUBLIC "-//W3C//DTD SVG 1.1//EN" "http://www.w3.org/Graphics/SVG/1.1/DTD/svg11.dtd">
<svg width="100%" height="100%" viewBox="0 0 2555 526" version="1.1" xmlns="http://www.w3.org/2000/svg" xmlns:xlink="http://www.w3.org/1999/xlink" xml:space="preserve" xmlns:serif="http://www.serif.com/" style="fill-rule:evenodd;clip-rule:evenodd;stroke-linejoin:round;stroke-miterlimit:2;">
    <g transform="matrix(1,0,0,1,-61.0573,-2105.59)">
        <g transform="matrix(600,0,0,600,130.657,2503.39)">
            <path d="M0.309,-0.598C0.172,-0.536 0.041,-0.467 0.041,-0.33C0.041,-0.229 0.149,-0.191 0.263,-0.19C0.236,-0.071 0.192,0.057 0.1,0.057C0.054,0.057 0.019,0.028 0.019,-0.013C0.019,-0.056 0.048,-0.079 0.078,-0.089C0.088,-0.093 0.093,-0.097 0.093,-0.103C0.093,-0.114 0.083,-0.118 0.056,-0.118C-0.016,-0.118 -0.116,-0.058 -0.116,0.043C-0.116,0.139 -0.026,0.213 0.081,0.213C0.275,0.213 0.358,0.034 0.39,-0.165C0.42,-0.346 0.417,-0.534 0.446,-0.601C0.457,-0.626 0.465,-0.638 0.465,-0.648C0.465,-0.659 0.457,-0.663 0.445,-0.663C0.432,-0.663 0.411,-0.66 0.383,-0.652C0.364,-0.647 0.341,-0.612 0.309,-0.598ZM0.2,-0.339C0.2,-0.426 0.238,-0.501 0.339,-0.559C0.302,-0.508 0.304,-0.384 0.27,-0.228C0.23,-0.246 0.2,-0.288 0.2,-0.339Z" style="fill:rgb(216,26,69);fill-rule:nonzero;"/>
        </g>
        <g transform="matrix(600,0,0,600,380.857,2503.39)">
            <path d="M0.199,-0.316C0.062,-0.316 -0.015,-0.219 -0.015,-0.122C-0.015,-0.042 0.042,0.009 0.13,0.009C0.253,0.009 0.324,-0.087 0.324,-0.199C0.324,-0.268 0.273,-0.316 0.199,-0.316ZM0.25,-0.14C0.25,-0.105 0.224,-0.064 0.184,-0.064C0.145,-0.064 0.119,-0.093 0.119,-0.138C0.119,-0.195 0.143,-0.232 0.168,-0.252C0.182,-0.263 0.192,-0.266 0.196,-0.266C0.202,-0.266 0.205,-0.263 0.205,-0.258C0.205,-0.252 0.19,-0.244 0.19,-0.219C0.19,-0.201 0.199,-0.19 0.23,-0.178C0.244,-0.172 0.25,-0.157 0.25,-0.14Z" style="fill:rgb(216,26,69);fill-rule:nonzero;"/>
        </g>
        <g transform="matrix(600,0,0,600,576.457,2503.39)">
            <path d="M0.021,-0.131C-0.002,-0.131 -0.025,-0.112 -0.025,-0.08C-0.025,-0.026 0.03,0.007 0.105,0.007C0.193,0.007 0.245,-0.037 0.245,-0.102C0.245,-0.175 0.135,-0.183 0.135,-0.242C0.135,-0.261 0.151,-0.275 0.164,-0.275C0.175,-0.275 0.183,-0.271 0.183,-0.261C0.183,-0.252 0.175,-0.246 0.175,-0.231C0.175,-0.212 0.192,-0.197 0.211,-0.197C0.244,-0.197 0.258,-0.221 0.258,-0.248C0.258,-0.289 0.225,-0.317 0.152,-0.317C0.077,-0.317 0.014,-0.285 0.014,-0.222C0.014,-0.147 0.113,-0.138 0.113,-0.079C0.113,-0.061 0.105,-0.052 0.091,-0.052C0.073,-0.052 0.064,-0.069 0.064,-0.094C0.064,-0.118 0.048,-0.131 0.021,-0.131Z" style="fill:rgb(216,26,69);fill-rule:nonzero;"/>
        </g>
        <g transform="matrix(600,0,0,600,735.457,2503.39)">
            <path d="M0.331,-0.109C0.331,-0.156 0.361,-0.194 0.361,-0.244C0.361,-0.287 0.331,-0.312 0.276,-0.312C0.219,-0.312 0.172,-0.278 0.147,-0.25C0.161,-0.294 0.205,-0.444 0.205,-0.5C0.205,-0.55 0.173,-0.578 0.12,-0.578C0.063,-0.578 0.01,-0.545 0.01,-0.524C0.01,-0.516 0.016,-0.512 0.025,-0.512C0.046,-0.512 0.063,-0.496 0.063,-0.463C0.063,-0.323 -0.025,-0.102 -0.025,-0.017C-0.025,-0 -0.018,0.005 -0.006,0.005C0.01,0.005 0.05,-0 0.081,-0C0.095,-0 0.102,-0.004 0.102,-0.021C0.104,-0.065 0.145,-0.24 0.207,-0.24C0.221,-0.24 0.231,-0.231 0.231,-0.216C0.231,-0.178 0.199,-0.126 0.199,-0.072C0.199,-0.026 0.231,0.005 0.292,0.005C0.344,0.005 0.375,-0.029 0.394,-0.052C0.401,-0.061 0.406,-0.069 0.406,-0.077C0.406,-0.083 0.403,-0.088 0.396,-0.088C0.39,-0.088 0.388,-0.085 0.381,-0.08C0.373,-0.074 0.365,-0.07 0.353,-0.07C0.339,-0.07 0.331,-0.083 0.331,-0.109Z" style="fill:rgb(216,26,69);fill-rule:nonzero;"/>
        </g>
        <g transform="matrix(600,0,0,600,1070.86,2503.39)">
            <path d="M0.347,-0.565C0.347,-0.388 0.235,-0.248 0.235,-0.109C0.235,-0.042 0.272,0.01 0.348,0.01C0.448,0.01 0.521,-0.066 0.555,-0.111C0.564,-0.042 0.607,0.01 0.679,0.01C0.865,0.01 1.034,-0.401 1.034,-0.559C1.034,-0.622 1.005,-0.663 0.937,-0.663C0.872,-0.663 0.825,-0.611 0.825,-0.589C0.825,-0.579 0.832,-0.574 0.842,-0.574C0.875,-0.574 0.907,-0.55 0.907,-0.478C0.907,-0.421 0.897,-0.336 0.864,-0.263C0.826,-0.178 0.784,-0.117 0.733,-0.117C0.705,-0.117 0.692,-0.135 0.692,-0.167C0.692,-0.239 0.762,-0.413 0.762,-0.482C0.762,-0.508 0.751,-0.519 0.726,-0.519C0.705,-0.519 0.615,-0.489 0.615,-0.458C0.615,-0.442 0.617,-0.438 0.617,-0.424C0.617,-0.392 0.585,-0.266 0.547,-0.204C0.511,-0.144 0.473,-0.117 0.439,-0.117C0.418,-0.117 0.401,-0.134 0.401,-0.161C0.401,-0.26 0.484,-0.388 0.484,-0.53C0.484,-0.613 0.422,-0.663 0.326,-0.663C0.172,-0.663 0,-0.552 0,-0.382C0,-0.312 0.045,-0.268 0.105,-0.268C0.178,-0.268 0.232,-0.34 0.232,-0.37C0.232,-0.377 0.229,-0.381 0.222,-0.381C0.215,-0.381 0.203,-0.373 0.19,-0.373C0.169,-0.373 0.15,-0.388 0.15,-0.421C0.15,-0.502 0.226,-0.607 0.303,-0.607C0.33,-0.607 0.347,-0.594 0.347,-0.565Z" style="fill:rgb(216,26,69);fill-rule:nonzero;"/>
        </g>
        <g transform="matrix(600,0,0,600,1658.86,2503.39)">
            <path d="M0.044,-0.419C0.044,-0.389 0.069,-0.365 0.1,-0.365C0.138,-0.365 0.174,-0.408 0.174,-0.448C0.174,-0.478 0.154,-0.501 0.118,-0.501C0.08,-0.501 0.044,-0.459 0.044,-0.419ZM0.084,0.005C0.147,0.005 0.19,-0.034 0.211,-0.061C0.221,-0.074 0.227,-0.082 0.227,-0.093C0.227,-0.099 0.222,-0.107 0.213,-0.107C0.207,-0.107 0.203,-0.104 0.196,-0.097C0.183,-0.084 0.175,-0.076 0.158,-0.076C0.14,-0.076 0.125,-0.091 0.125,-0.117C0.125,-0.183 0.157,-0.246 0.157,-0.286C0.157,-0.303 0.145,-0.312 0.123,-0.312C0.065,-0.312 0.012,-0.297 0.012,-0.275C0.012,-0.262 0.018,-0.26 0.018,-0.243C0.018,-0.207 -0.015,-0.142 -0.015,-0.078C-0.015,-0.032 0.018,0.005 0.084,0.005Z" style="fill:rgb(216,26,69);fill-rule:nonzero;"/>
        </g>
        <g transform="matrix(600,0,0,600,1769.26,2503.39)">
            <path d="M0.188,-0.262C0.2,-0.262 0.211,-0.276 0.211,-0.296C0.211,-0.304 0.205,-0.307 0.197,-0.307C0.167,-0.307 0.163,-0.314 0.163,-0.327C0.163,-0.344 0.177,-0.385 0.177,-0.407C0.177,-0.415 0.172,-0.423 0.161,-0.423C0.152,-0.423 0.144,-0.417 0.134,-0.401C0.108,-0.359 0.059,-0.307 0.006,-0.307C-0.005,-0.307 -0.011,-0.288 -0.011,-0.278C-0.011,-0.26 0.016,-0.268 0.016,-0.255C0.016,-0.205 -0.015,-0.155 -0.015,-0.091C-0.015,-0.038 0.016,0.005 0.088,0.005C0.15,0.005 0.216,-0.052 0.242,-0.086C0.248,-0.094 0.25,-0.101 0.25,-0.106C0.25,-0.112 0.245,-0.118 0.237,-0.118C0.231,-0.118 0.226,-0.114 0.219,-0.108C0.203,-0.095 0.183,-0.076 0.163,-0.076C0.139,-0.076 0.124,-0.087 0.124,-0.117C0.124,-0.15 0.137,-0.201 0.145,-0.23C0.152,-0.254 0.163,-0.262 0.188,-0.262Z" style="fill:rgb(216,26,69);fill-rule:nonzero;"/>
        </g>
        <g transform="matrix(600,0,0,600,1893.46,2503.39)">
            <path d="M0.288,0.005C0.351,0.005 0.394,-0.034 0.415,-0.061C0.425,-0.074 0.431,-0.082 0.431,-0.093C0.431,-0.099 0.426,-0.107 0.417,-0.107C0.411,-0.107 0.407,-0.104 0.4,-0.097C0.387,-0.084 0.379,-0.076 0.362,-0.076C0.344,-0.076 0.331,-0.088 0.331,-0.11C0.331,-0.155 0.361,-0.194 0.361,-0.244C0.361,-0.287 0.331,-0.312 0.276,-0.312C0.219,-0.312 0.172,-0.278 0.147,-0.25C0.161,-0.294 0.205,-0.444 0.205,-0.5C0.205,-0.55 0.173,-0.578 0.12,-0.578C0.063,-0.578 0.01,-0.545 0.01,-0.524C0.01,-0.516 0.016,-0.512 0.025,-0.512C0.046,-0.512 0.063,-0.496 0.063,-0.463C0.063,-0.323 -0.025,-0.102 -0.025,-0.017C-0.025,-0 -0.018,0.005 -0.006,0.005C0.01,0.005 0.05,-0 0.081,-0C0.095,-0 0.102,-0.004 0.102,-0.021C0.104,-0.065 0.145,-0.24 0.207,-0.24C0.221,-0.24 0.231,-0.231 0.231,-0.216C0.231,-0.178 0.199,-0.126 0.199,-0.072C0.199,-0.026 0.227,0.005 0.288,0.005Z" style="fill:rgb(216,26,69);fill-rule:nonzero;"/>
        </g>
        <g transform="matrix(600,0,0,600,2126.26,2503.39)">
            <path d="M0.128,-0.163C0.128,-0.222 0.168,-0.271 0.198,-0.271C0.214,-0.271 0.222,-0.263 0.222,-0.248C0.222,-0.224 0.185,-0.174 0.128,-0.163ZM0.203,-0.059C0.155,-0.059 0.128,-0.086 0.128,-0.121C0.228,-0.129 0.295,-0.184 0.295,-0.241C0.295,-0.284 0.264,-0.314 0.196,-0.314C0.063,-0.314 -0.015,-0.227 -0.015,-0.13C-0.015,-0.034 0.051,0.008 0.145,0.008C0.242,0.008 0.291,-0.041 0.324,-0.076C0.339,-0.092 0.344,-0.1 0.344,-0.11C0.344,-0.116 0.34,-0.122 0.332,-0.122C0.326,-0.122 0.319,-0.117 0.311,-0.11C0.289,-0.092 0.254,-0.059 0.203,-0.059Z" style="fill:rgb(216,26,69);fill-rule:nonzero;"/>
        </g>
        <g transform="matrix(600,0,0,600,2301.46,2503.39)">
            <path d="M0.148,-0.177C0.163,-0.205 0.176,-0.218 0.182,-0.22C0.182,-0.202 0.196,-0.182 0.224,-0.182C0.265,-0.182 0.289,-0.224 0.289,-0.261C0.289,-0.291 0.271,-0.308 0.243,-0.308C0.189,-0.308 0.161,-0.259 0.155,-0.247C0.157,-0.254 0.161,-0.273 0.161,-0.286C0.161,-0.303 0.149,-0.312 0.127,-0.312C0.069,-0.312 0.015,-0.297 0.015,-0.275C0.015,-0.262 0.022,-0.26 0.022,-0.243C0.022,-0.189 -0.02,-0.054 -0.02,-0.017C-0.02,-0 -0.012,0.005 0.001,0.005C0.016,0.005 0.055,-0 0.085,-0C0.1,-0 0.107,-0.004 0.107,-0.021C0.107,-0.06 0.13,-0.143 0.148,-0.177Z" style="fill:rgb(216,26,69);fill-rule:nonzero;"/>
        </g>
        <g transform="matrix(600,0,0,600,2461.06,2503.39)">
            <path d="M0.021,-0.131C-0.002,-0.131 -0.025,-0.112 -0.025,-0.08C-0.025,-0.026 0.03,0.007 0.105,0.007C0.193,0.007 0.245,-0.037 0.245,-0.102C0.245,-0.175 0.135,-0.183 0.135,-0.242C0.135,-0.261 0.151,-0.275 0.164,-0.275C0.175,-0.275 0.183,-0.271 0.183,-0.261C0.183,-0.252 0.175,-0.246 0.175,-0.231C0.175,-0.212 0.192,-0.197 0.211,-0.197C0.244,-0.197 0.258,-0.221 0.258,-0.248C0.258,-0.289 0.225,-0.317 0.152,-0.317C0.077,-0.317 0.014,-0.285 0.014,-0.222C0.014,-0.147 0.113,-0.138 0.113,-0.079C0.113,-0.061 0.105,-0.052 0.091,-0.052C0.073,-0.052 0.064,-0.069 0.064,-0.094C0.064,-0.118 0.048,-0.131 0.021,-0.131Z" style="fill:rgb(216,26,69);fill-rule:nonzero;"/>
        </g>
    </g>
    <g transform="matrix(1.05863,0,0,1.05863,1396.64,1097.07)">
        <g transform="matrix(96,0,0,96,-14.6471,-562.098)">
            <path d="M0.209,-0L0.026,-0.7L0.176,-0.7L0.294,-0.158L0.436,-0.7L0.59,-0.7L0.727,-0.158L0.847,-0.7L0.998,-0.7L0.81,-0L0.643,-0L0.511,-0.503L0.375,-0L0.209,-0Z" style="fill:rgb(216,26,69);fill-rule:nonzero;"/>
        </g>
        <g transform="matrix(96,0,0,96,75.6837,-562.098)">
            <path d="M0.309,0.012C0.258,0.012 0.213,0.001 0.174,-0.021C0.135,-0.042 0.105,-0.073 0.083,-0.112C0.061,-0.151 0.05,-0.196 0.05,-0.247C0.05,-0.299 0.061,-0.345 0.083,-0.386C0.104,-0.426 0.134,-0.458 0.173,-0.481C0.212,-0.504 0.258,-0.516 0.31,-0.516C0.36,-0.516 0.404,-0.505 0.441,-0.483C0.479,-0.461 0.508,-0.431 0.529,-0.394C0.55,-0.356 0.561,-0.313 0.561,-0.265C0.561,-0.259 0.56,-0.251 0.56,-0.243C0.56,-0.235 0.559,-0.226 0.558,-0.217L0.15,-0.217L0.15,-0.302L0.419,-0.302C0.417,-0.332 0.406,-0.357 0.386,-0.375C0.365,-0.394 0.34,-0.403 0.31,-0.403C0.288,-0.403 0.267,-0.397 0.248,-0.387C0.23,-0.377 0.215,-0.361 0.204,-0.34C0.194,-0.32 0.188,-0.293 0.188,-0.261L0.188,-0.232C0.188,-0.206 0.193,-0.183 0.203,-0.164C0.213,-0.144 0.227,-0.129 0.245,-0.118C0.263,-0.108 0.284,-0.102 0.308,-0.102C0.332,-0.102 0.352,-0.107 0.368,-0.117C0.383,-0.127 0.395,-0.14 0.403,-0.156L0.546,-0.156C0.537,-0.125 0.521,-0.096 0.499,-0.071C0.476,-0.045 0.449,-0.025 0.417,-0.01C0.385,0.005 0.349,0.012 0.309,0.012Z" style="fill:rgb(216,26,69);fill-rule:nonzero;"/>
        </g>
        <g transform="matrix(96,0,0,96,131.101,-562.098)">
            <path d="M0.29,0.012C0.244,0.012 0.203,0.001 0.167,-0.022C0.131,-0.045 0.102,-0.076 0.081,-0.116C0.061,-0.156 0.05,-0.201 0.05,-0.251C0.05,-0.302 0.061,-0.348 0.082,-0.388C0.103,-0.427 0.132,-0.459 0.169,-0.481C0.205,-0.504 0.247,-0.516 0.293,-0.516C0.329,-0.516 0.36,-0.509 0.387,-0.496C0.414,-0.483 0.435,-0.465 0.452,-0.441L0.452,-0.72L0.592,-0.72L0.592,-0L0.468,-0L0.452,-0.068C0.442,-0.054 0.429,-0.04 0.415,-0.028C0.4,-0.016 0.382,-0.006 0.362,0.001C0.342,0.008 0.318,0.012 0.29,0.012ZM0.324,-0.11C0.35,-0.11 0.373,-0.116 0.393,-0.128C0.413,-0.14 0.428,-0.157 0.439,-0.178C0.45,-0.2 0.456,-0.224 0.456,-0.252C0.456,-0.28 0.45,-0.305 0.439,-0.326C0.428,-0.347 0.413,-0.364 0.393,-0.376C0.373,-0.388 0.35,-0.394 0.324,-0.394C0.299,-0.394 0.276,-0.388 0.256,-0.376C0.236,-0.364 0.221,-0.347 0.209,-0.326C0.198,-0.304 0.193,-0.28 0.193,-0.253C0.193,-0.225 0.198,-0.2 0.209,-0.179C0.221,-0.157 0.236,-0.14 0.256,-0.128C0.276,-0.116 0.299,-0.11 0.324,-0.11Z" style="fill:rgb(216,26,69);fill-rule:nonzero;"/>
        </g>
        <g transform="matrix(96,0,0,96,191.509,-562.098)">
            <path d="M0.29,0.012C0.244,0.012 0.203,0.001 0.167,-0.022C0.131,-0.045 0.102,-0.076 0.081,-0.116C0.061,-0.156 0.05,-0.201 0.05,-0.251C0.05,-0.302 0.061,-0.348 0.082,-0.388C0.103,-0.427 0.132,-0.459 0.169,-0.481C0.205,-0.504 0.247,-0.516 0.293,-0.516C0.329,-0.516 0.36,-0.509 0.387,-0.496C0.414,-0.483 0.435,-0.465 0.452,-0.441L0.452,-0.72L0.592,-0.72L0.592,-0L0.468,-0L0.452,-0.068C0.442,-0.054 0.429,-0.04 0.415,-0.028C0.4,-0.016 0.382,-0.006 0.362,0.001C0.342,0.008 0.318,0.012 0.29,0.012ZM0.324,-0.11C0.35,-0.11 0.373,-0.116 0.393,-0.128C0.413,-0.14 0.428,-0.157 0.439,-0.178C0.45,-0.2 0.456,-0.224 0.456,-0.252C0.456,-0.28 0.45,-0.305 0.439,-0.326C0.428,-0.347 0.413,-0.364 0.393,-0.376C0.373,-0.388 0.35,-0.394 0.324,-0.394C0.299,-0.394 0.276,-0.388 0.256,-0.376C0.236,-0.364 0.221,-0.347 0.209,-0.326C0.198,-0.304 0.193,-0.28 0.193,-0.253C0.193,-0.225 0.198,-0.2 0.209,-0.179C0.221,-0.157 0.236,-0.14 0.256,-0.128C0.276,-0.116 0.299,-0.11 0.324,-0.11Z" style="fill:rgb(216,26,69);fill-rule:nonzero;"/>
        </g>
        <g transform="matrix(96,0,0,96,251.917,-562.098)">
            <path d="M0.069,-0L0.069,-0.504L0.209,-0.504L0.209,-0L0.069,-0ZM0.139,-0.569C0.114,-0.569 0.093,-0.577 0.077,-0.591C0.061,-0.606 0.053,-0.625 0.053,-0.647C0.053,-0.67 0.061,-0.688 0.077,-0.703C0.093,-0.718 0.114,-0.725 0.139,-0.725C0.164,-0.725 0.185,-0.718 0.201,-0.703C0.217,-0.688 0.225,-0.67 0.225,-0.647C0.225,-0.625 0.217,-0.606 0.201,-0.591C0.185,-0.577 0.164,-0.569 0.139,-0.569Z" style="fill:rgb(216,26,69);fill-rule:nonzero;"/>
        </g>
        <g transform="matrix(96,0,0,96,275.821,-562.098)">
            <path d="M0.066,-0L0.066,-0.504L0.189,-0.504L0.199,-0.422C0.214,-0.45 0.236,-0.473 0.265,-0.49C0.293,-0.507 0.327,-0.516 0.367,-0.516C0.408,-0.516 0.443,-0.507 0.472,-0.489C0.501,-0.472 0.523,-0.446 0.538,-0.413C0.553,-0.379 0.56,-0.338 0.56,-0.29L0.56,-0L0.421,-0L0.421,-0.277C0.421,-0.315 0.413,-0.345 0.396,-0.366C0.38,-0.387 0.354,-0.398 0.319,-0.398C0.298,-0.398 0.278,-0.393 0.261,-0.382C0.244,-0.372 0.23,-0.357 0.22,-0.338C0.211,-0.319 0.206,-0.296 0.206,-0.269L0.206,-0L0.066,-0Z" style="fill:rgb(216,26,69);fill-rule:nonzero;"/>
        </g>
        <g transform="matrix(96,0,0,96,332.731,-562.098)">
            <path d="M0.284,0.232C0.236,0.232 0.194,0.226 0.158,0.215C0.122,0.203 0.094,0.185 0.074,0.162C0.054,0.138 0.045,0.109 0.045,0.074C0.045,0.05 0.051,0.027 0.064,0.006C0.076,-0.015 0.094,-0.034 0.118,-0.051C0.142,-0.068 0.171,-0.082 0.206,-0.094L0.257,-0.024C0.226,-0.015 0.204,-0.003 0.191,0.012C0.177,0.027 0.17,0.042 0.17,0.06C0.17,0.075 0.175,0.087 0.185,0.097C0.195,0.107 0.209,0.115 0.226,0.119C0.243,0.124 0.262,0.127 0.283,0.127C0.304,0.127 0.322,0.124 0.337,0.119C0.353,0.114 0.365,0.107 0.373,0.097C0.382,0.087 0.386,0.075 0.386,0.062C0.386,0.044 0.38,0.03 0.368,0.019C0.356,0.008 0.331,0.001 0.294,-0.001C0.261,-0.004 0.231,-0.008 0.204,-0.013C0.178,-0.018 0.155,-0.024 0.135,-0.031C0.115,-0.038 0.098,-0.046 0.084,-0.054C0.069,-0.063 0.058,-0.072 0.05,-0.08L0.05,-0.103L0.158,-0.22L0.257,-0.189L0.128,-0.061L0.169,-0.131C0.176,-0.127 0.183,-0.123 0.19,-0.119C0.198,-0.116 0.206,-0.112 0.217,-0.11C0.228,-0.107 0.242,-0.104 0.258,-0.102C0.275,-0.099 0.297,-0.096 0.323,-0.094C0.367,-0.09 0.403,-0.082 0.431,-0.07C0.459,-0.057 0.48,-0.04 0.494,-0.019C0.507,0.002 0.514,0.028 0.514,0.059C0.514,0.089 0.506,0.117 0.489,0.143C0.473,0.169 0.448,0.191 0.414,0.207C0.38,0.224 0.337,0.232 0.284,0.232ZM0.285,-0.148C0.243,-0.148 0.206,-0.156 0.176,-0.172C0.145,-0.189 0.122,-0.211 0.106,-0.239C0.089,-0.266 0.081,-0.297 0.081,-0.332C0.081,-0.366 0.089,-0.397 0.106,-0.424C0.122,-0.452 0.146,-0.474 0.176,-0.491C0.207,-0.507 0.243,-0.516 0.285,-0.516C0.327,-0.516 0.364,-0.507 0.394,-0.491C0.425,-0.474 0.448,-0.452 0.464,-0.424C0.48,-0.397 0.488,-0.366 0.488,-0.332C0.488,-0.297 0.48,-0.266 0.464,-0.239C0.448,-0.211 0.425,-0.189 0.394,-0.172C0.364,-0.156 0.327,-0.148 0.285,-0.148ZM0.285,-0.254C0.31,-0.254 0.33,-0.261 0.345,-0.274C0.361,-0.287 0.369,-0.306 0.369,-0.331C0.369,-0.356 0.361,-0.375 0.345,-0.388C0.33,-0.401 0.31,-0.408 0.285,-0.408C0.26,-0.408 0.24,-0.401 0.224,-0.388C0.208,-0.375 0.2,-0.356 0.2,-0.331C0.2,-0.306 0.208,-0.287 0.224,-0.274C0.24,-0.261 0.26,-0.254 0.285,-0.254ZM0.368,-0.406L0.346,-0.504L0.554,-0.504L0.554,-0.422L0.368,-0.406Z" style="fill:rgb(216,26,69);fill-rule:nonzero;"/>
        </g>
        <g transform="matrix(96,0,0,96,407.238,-562.098)">
            <path d="M0.384,0.012C0.314,0.012 0.253,-0.003 0.203,-0.034C0.152,-0.064 0.113,-0.106 0.086,-0.161C0.059,-0.215 0.045,-0.278 0.045,-0.349C0.045,-0.42 0.059,-0.483 0.086,-0.538C0.113,-0.592 0.152,-0.635 0.203,-0.666C0.253,-0.697 0.314,-0.712 0.384,-0.712C0.469,-0.712 0.539,-0.691 0.593,-0.648C0.648,-0.606 0.681,-0.546 0.695,-0.468L0.541,-0.468C0.533,-0.505 0.515,-0.534 0.488,-0.554C0.462,-0.575 0.426,-0.585 0.382,-0.585C0.342,-0.585 0.307,-0.576 0.278,-0.557C0.249,-0.537 0.226,-0.51 0.211,-0.475C0.196,-0.44 0.188,-0.398 0.188,-0.349C0.188,-0.3 0.196,-0.259 0.211,-0.224C0.226,-0.188 0.249,-0.161 0.278,-0.143C0.307,-0.124 0.342,-0.114 0.382,-0.114C0.426,-0.114 0.461,-0.124 0.488,-0.142C0.515,-0.161 0.533,-0.188 0.541,-0.222L0.695,-0.222C0.681,-0.149 0.648,-0.092 0.593,-0.05C0.539,-0.009 0.469,0.012 0.384,0.012Z" style="fill:rgb(216,26,69);fill-rule:nonzero;"/>
        </g>
        <g transform="matrix(96,0,0,96,475.584,-562.098)">
            <path d="M0.309,0.012C0.258,0.012 0.213,0.001 0.174,-0.021C0.135,-0.042 0.105,-0.073 0.083,-0.112C0.061,-0.151 0.05,-0.196 0.05,-0.247C0.05,-0.299 0.061,-0.345 0.083,-0.386C0.104,-0.426 0.134,-0.458 0.173,-0.481C0.212,-0.504 0.258,-0.516 0.31,-0.516C0.36,-0.516 0.404,-0.505 0.441,-0.483C0.479,-0.461 0.508,-0.431 0.529,-0.394C0.55,-0.356 0.561,-0.313 0.561,-0.265C0.561,-0.259 0.56,-0.251 0.56,-0.243C0.56,-0.235 0.559,-0.226 0.558,-0.217L0.15,-0.217L0.15,-0.302L0.419,-0.302C0.417,-0.332 0.406,-0.357 0.386,-0.375C0.365,-0.394 0.34,-0.403 0.31,-0.403C0.288,-0.403 0.267,-0.397 0.248,-0.387C0.23,-0.377 0.215,-0.361 0.204,-0.34C0.194,-0.32 0.188,-0.293 0.188,-0.261L0.188,-0.232C0.188,-0.206 0.193,-0.183 0.203,-0.164C0.213,-0.144 0.227,-0.129 0.245,-0.118C0.263,-0.108 0.284,-0.102 0.308,-0.102C0.332,-0.102 0.352,-0.107 0.368,-0.117C0.383,-0.127 0.395,-0.14 0.403,-0.156L0.546,-0.156C0.537,-0.125 0.521,-0.096 0.499,-0.071C0.476,-0.045 0.449,-0.025 0.417,-0.01C0.385,0.005 0.349,0.012 0.309,0.012Z" style="fill:rgb(216,26,69);fill-rule:nonzero;"/>
        </g>
        <g transform="matrix(96,0,0,96,531.001,-562.098)">
            <rect x="0.066" y="-0.72" width="0.14" height="0.72" style="fill:rgb(216,26,69);fill-rule:nonzero;"/>
        </g>
        <g transform="matrix(96,0,0,96,554.34,-562.098)">
            <path d="M0.309,0.012C0.258,0.012 0.213,0.001 0.174,-0.021C0.135,-0.042 0.105,-0.073 0.083,-0.112C0.061,-0.151 0.05,-0.196 0.05,-0.247C0.05,-0.299 0.061,-0.345 0.083,-0.386C0.104,-0.426 0.134,-0.458 0.173,-0.481C0.212,-0.504 0.258,-0.516 0.31,-0.516C0.36,-0.516 0.404,-0.505 0.441,-0.483C0.479,-0.461 0.508,-0.431 0.529,-0.394C0.55,-0.356 0.561,-0.313 0.561,-0.265C0.561,-0.259 0.56,-0.251 0.56,-0.243C0.56,-0.235 0.559,-0.226 0.558,-0.217L0.15,-0.217L0.15,-0.302L0.419,-0.302C0.417,-0.332 0.406,-0.357 0.386,-0.375C0.365,-0.394 0.34,-0.403 0.31,-0.403C0.288,-0.403 0.267,-0.397 0.248,-0.387C0.23,-0.377 0.215,-0.361 0.204,-0.34C0.194,-0.32 0.188,-0.293 0.188,-0.261L0.188,-0.232C0.188,-0.206 0.193,-0.183 0.203,-0.164C0.213,-0.144 0.227,-0.129 0.245,-0.118C0.263,-0.108 0.284,-0.102 0.308,-0.102C0.332,-0.102 0.352,-0.107 0.368,-0.117C0.383,-0.127 0.395,-0.14 0.403,-0.156L0.546,-0.156C0.537,-0.125 0.521,-0.096 0.499,-0.071C0.476,-0.045 0.449,-0.025 0.417,-0.01C0.385,0.005 0.349,0.012 0.309,0.012Z" style="fill:rgb(216,26,69);fill-rule:nonzero;"/>
        </g>
        <g transform="matrix(96,0,0,96,609.757,-562.098)">
            <path d="M0.367,0.012C0.341,0.012 0.318,0.009 0.298,0.002C0.278,-0.004 0.26,-0.013 0.245,-0.024C0.229,-0.036 0.216,-0.049 0.206,-0.063L0.19,-0L0.066,-0L0.066,-0.72L0.206,-0.72L0.206,-0.435C0.222,-0.459 0.243,-0.478 0.269,-0.493C0.295,-0.508 0.327,-0.516 0.366,-0.516C0.412,-0.516 0.453,-0.504 0.49,-0.481C0.526,-0.458 0.555,-0.427 0.576,-0.387C0.597,-0.348 0.607,-0.302 0.607,-0.251C0.607,-0.201 0.597,-0.156 0.576,-0.116C0.555,-0.076 0.526,-0.045 0.49,-0.022C0.454,0.001 0.413,0.012 0.367,0.012ZM0.333,-0.11C0.359,-0.11 0.381,-0.116 0.401,-0.128C0.421,-0.14 0.437,-0.157 0.448,-0.178C0.459,-0.199 0.465,-0.223 0.465,-0.251C0.465,-0.279 0.459,-0.304 0.448,-0.325C0.437,-0.347 0.421,-0.363 0.401,-0.375C0.381,-0.388 0.359,-0.394 0.333,-0.394C0.307,-0.394 0.284,-0.388 0.265,-0.375C0.245,-0.363 0.229,-0.347 0.218,-0.325C0.207,-0.304 0.201,-0.28 0.201,-0.252C0.201,-0.224 0.207,-0.199 0.218,-0.178C0.229,-0.157 0.245,-0.14 0.265,-0.128C0.284,-0.116 0.307,-0.11 0.333,-0.11Z" style="fill:rgb(216,26,69);fill-rule:nonzero;"/>
        </g>
        <g transform="matrix(96,0,0,96,670.195,-562.098)">
            <path d="M0.066,-0L0.066,-0.504L0.19,-0.504L0.203,-0.411C0.216,-0.433 0.231,-0.452 0.249,-0.467C0.267,-0.482 0.288,-0.494 0.312,-0.503C0.336,-0.511 0.362,-0.516 0.39,-0.516L0.39,-0.368L0.343,-0.368C0.323,-0.368 0.304,-0.365 0.287,-0.361C0.271,-0.356 0.256,-0.349 0.244,-0.339C0.232,-0.329 0.222,-0.314 0.216,-0.297C0.209,-0.279 0.206,-0.257 0.206,-0.23L0.206,-0L0.066,-0Z" style="fill:rgb(216,26,69);fill-rule:nonzero;"/>
        </g>
        <g transform="matrix(96,0,0,96,707.128,-562.098)">
            <path d="M0.236,0.012C0.194,0.012 0.16,0.005 0.132,-0.008C0.105,-0.022 0.085,-0.04 0.071,-0.063C0.058,-0.087 0.052,-0.112 0.052,-0.14C0.052,-0.17 0.059,-0.197 0.075,-0.22C0.09,-0.243 0.114,-0.262 0.146,-0.275C0.178,-0.288 0.218,-0.295 0.266,-0.295L0.39,-0.295C0.39,-0.319 0.387,-0.339 0.38,-0.355C0.374,-0.371 0.364,-0.382 0.351,-0.39C0.337,-0.398 0.319,-0.402 0.296,-0.402C0.272,-0.402 0.251,-0.397 0.234,-0.386C0.216,-0.376 0.206,-0.36 0.202,-0.338L0.066,-0.338C0.07,-0.374 0.082,-0.405 0.102,-0.432C0.122,-0.458 0.149,-0.479 0.183,-0.493C0.217,-0.508 0.255,-0.516 0.297,-0.516C0.345,-0.516 0.386,-0.508 0.421,-0.492C0.456,-0.476 0.482,-0.453 0.501,-0.423C0.52,-0.393 0.53,-0.356 0.53,-0.312L0.53,-0L0.412,-0L0.396,-0.076C0.389,-0.063 0.381,-0.051 0.37,-0.04C0.36,-0.03 0.348,-0.021 0.335,-0.013C0.322,-0.005 0.307,0.001 0.291,0.006C0.274,0.01 0.256,0.012 0.236,0.012ZM0.27,-0.096C0.287,-0.096 0.302,-0.099 0.315,-0.105C0.328,-0.11 0.339,-0.119 0.349,-0.129C0.359,-0.14 0.366,-0.152 0.372,-0.165C0.378,-0.179 0.382,-0.194 0.384,-0.21L0.384,-0.211L0.283,-0.211C0.264,-0.211 0.248,-0.208 0.235,-0.203C0.223,-0.198 0.214,-0.191 0.208,-0.183C0.202,-0.174 0.199,-0.164 0.199,-0.152C0.199,-0.14 0.202,-0.129 0.208,-0.121C0.214,-0.113 0.223,-0.106 0.233,-0.102C0.244,-0.098 0.256,-0.096 0.27,-0.096Z" style="fill:rgb(216,26,69);fill-rule:nonzero;"/>
        </g>
        <g transform="matrix(96,0,0,96,761.075,-562.098)">
            <path d="M0.066,-0L0.066,-0.504L0.189,-0.504L0.199,-0.422C0.214,-0.45 0.236,-0.473 0.265,-0.49C0.293,-0.507 0.327,-0.516 0.367,-0.516C0.408,-0.516 0.443,-0.507 0.472,-0.489C0.501,-0.472 0.523,-0.446 0.538,-0.413C0.553,-0.379 0.56,-0.338 0.56,-0.29L0.56,-0L0.421,-0L0.421,-0.277C0.421,-0.315 0.413,-0.345 0.396,-0.366C0.38,-0.387 0.354,-0.398 0.319,-0.398C0.298,-0.398 0.278,-0.393 0.261,-0.382C0.244,-0.372 0.23,-0.357 0.22,-0.338C0.211,-0.319 0.206,-0.296 0.206,-0.269L0.206,-0L0.066,-0Z" style="fill:rgb(216,26,69);fill-rule:nonzero;"/>
        </g>
        <g transform="matrix(96,0,0,96,817.985,-562.098)">
            <path d="M0.296,-0C0.26,-0 0.229,-0.006 0.202,-0.017C0.175,-0.028 0.154,-0.047 0.139,-0.073C0.124,-0.099 0.117,-0.134 0.117,-0.179L0.117,-0.387L0.03,-0.387L0.03,-0.504L0.117,-0.504L0.132,-0.643L0.257,-0.643L0.257,-0.504L0.388,-0.504L0.388,-0.387L0.257,-0.387L0.257,-0.178C0.257,-0.156 0.262,-0.141 0.271,-0.132C0.281,-0.123 0.297,-0.119 0.321,-0.119L0.387,-0.119L0.387,-0L0.296,-0Z" style="fill:rgb(216,26,69);fill-rule:nonzero;"/>
        </g>
    </g>
</svg>
