<svg preserveAspectRatio="xMidYMid meet" data-bbox="81.136 150.07 262.924 125.058" viewBox="81.136 150.07 262.924 125.058" height="425.197" width="425.197" xmlns="http://www.w3.org/2000/svg" data-type="color" role="presentation" aria-hidden="true" aria-label="">
    <g>
        <defs>
            <clipPath id="1396c059-89ed-4891-a002-acdcf84c3926_comp-mdha0czt">
                <path d="M0 0h425.197v425.197H0Z"></path>
            </clipPath>
        </defs>
        <g clip-path="url(#1396c059-89ed-4891-a002-acdcf84c3926_comp-mdha0czt)">
            <path fill="#231f20" d="M84.456 274.27a6.27 6.27 0 0 1-2.437-2.37q-.882-1.516-.882-3.396 0-1.877.882-3.393a6.27 6.27 0 0 1 2.447-2.372q1.562-.855 3.496-.855 1.45 0 2.679.483a5.6 5.6 0 0 1 2.083 1.414l-.874.874q-1.525-1.544-3.85-1.543-1.544 0-2.809.706a5.17 5.17 0 0 0-1.98 1.933q-.717 1.23-.717 2.753 0 1.526.717 2.753a5.15 5.15 0 0 0 1.98 1.935q1.265.707 2.809.707 2.342 0 3.85-1.564l.874.876a5.64 5.64 0 0 1-2.093 1.423 7.2 7.2 0 0 1-2.688.493q-1.934 0-3.487-.857" data-color="1"></path>
            <path fill="#231f20" d="M122.593 273.936v1.191h-9.206v-13.019h8.927v1.189h-7.551v4.632h6.732v1.172h-6.732v4.835Z" data-color="1"></path>
            <path fill="#231f20" d="M143.256 262.108h1.376v11.828h7.291v1.192h-8.667Z" data-color="1"></path>
            <path fill="#231f20" d="M181.792 273.936v1.191h-9.206v-13.019h8.928v1.189h-7.552v4.632h6.732v1.172h-6.732v4.835Z" data-color="1"></path>
            <path fill="#231f20" d="M211.065 273.398q.894-.595.895-1.86 0-2.437-3.535-2.437h-4.594v4.892h4.594q1.748 0 2.64-.595m-7.234-10.155v4.723h4.148q1.58.001 2.436-.604.856-.604.855-1.758 0-1.153-.855-1.758-.857-.603-2.436-.603Zm8.806 6.276q.698.829.698 2.131 0 1.673-1.237 2.574-1.237.904-3.655.903h-5.988v-13.019h5.616q2.176 0 3.377.874t1.199 2.473q0 1.08-.53 1.834-.53.752-1.459 1.124 1.282.279 1.979 1.106" data-color="1"></path>
            <path fill="#231f20" d="M241.79 268.97q1.022-.855 1.022-2.399 0-1.582-1.022-2.427-1.023-.848-2.957-.848h-3.46v6.529h3.46q1.934 0 2.957-.855m1.098 6.156-2.977-4.185a10 10 0 0 1-1.041.056h-3.497v4.129h-1.376v-13.019h4.873q2.492 0 3.905 1.189 1.414 1.193 1.414 3.275 0 1.525-.772 2.575-.771 1.051-2.204 1.516l3.181 4.464Z" data-color="1"></path>
            <path fill="#231f20" d="m274.804 270.532-3.125-6.993-3.124 6.993Zm.501 1.117h-7.253l-1.561 3.478h-1.433l5.951-13.02h1.358l5.953 13.02h-1.452Z" data-color="1"></path>
            <path fill="#231f20" d="M309.862 262.108v13.02h-1.135l-8.37-10.565v10.565h-1.375v-13.02h1.134l8.389 10.563v-10.563Z" data-color="1"></path>
            <path fill="#231f20" d="M335.1 263.297h-4.576v-1.189h10.528v1.189h-4.576v11.83H335.1Z" data-color="1"></path>
            <path fill="#231f20" d="m109.356 196.918-11.678 10.564v39.897H81.136v-94.208l16.542-3.101v53.103l58.944-53.103h4.864l-40.315 36.281 43.512 61.028h-19.182Z" data-color="1"></path>
            <path fill="#231f20" d="M318.161 177.089H313.3l-39.545 34.286v-61.296l-16.543 3.061v94.239h16.543v-31.835l4.866-4.169 25.717 36.004h18.767l-32.808-46.012Z" data-color="1"></path>
            <path fill="#231f20" d="m171.85 180.035 16.543-3.142v70.486H171.85Z" data-color="1"></path>
            <path fill="#231f20" d="M171.85 158.219c0-4.743 3.649-8.148 8.515-8.148 4.623 0 8.028 3.405 8.028 8.148 0 4.746-3.405 8.273-8.028 8.273-4.866 0-8.515-3.527-8.515-8.273" data-color="1"></path>
            <path fill="#231f20" d="M231.099 176.894c-6.829 0-12.825 3.61-16.249 9.028v-9.028l-16.541 3.142v67.343h16.541v-51.217c.09-9.003 7.341-16.301 16.249-16.301 8.946 0 16.226 7.36 16.254 16.415h3.015c-.03-10.692-8.661-19.382-19.269-19.382" data-color="1"></path>
            <path fill="#231f20" d="M327.516 239.107c0-4.743 3.649-8.148 8.516-8.148 4.622 0 8.028 3.405 8.028 8.148 0 4.745-3.406 8.272-8.028 8.272-4.867 0-8.516-3.527-8.516-8.272" data-color="1"></path>
        </g>
    </g>
</svg>