<svg xmlns="http://www.w3.org/2000/svg" xmlns:xlink="http://www.w3.org/1999/xlink" width="266" zoomAndPan="magnify" viewBox="0 0 199.5 133.500001" height="178" preserveAspectRatio="xMidYMid meet" version="1.0"><defs><clipPath id="f7be0a1246"><path d="M 0.125 0 L 198.878906 0 L 198.878906 133 L 0.125 133 Z M 0.125 0 " clip-rule="nonzero"/></clipPath><clipPath id="3e4212ac9c"><path d="M 42.691406 83.246094 L 56.519531 83.246094 L 56.519531 98.964844 L 42.691406 98.964844 Z M 42.691406 83.246094 " clip-rule="nonzero"/></clipPath><clipPath id="cb483088df"><path d="M 53.828125 94.773438 C 53.828125 91.53125 50.417969 91.238281 49.777344 91.238281 L 46.964844 91.238281 L 46.964844 98.121094 L 50.351562 98.121094 C 50.351562 98.121094 53.828125 98.035156 53.828125 94.773438 M 46.964844 90.488281 L 50.457031 90.488281 C 51.726562 90.488281 53.398438 89.519531 53.398438 87.460938 C 53.398438 85.253906 51.960938 84.003906 50.011719 84.003906 L 46.964844 84.003906 Z M 56.425781 94.882812 C 56.425781 95.761719 55.78125 98.960938 50.351562 98.960938 L 44.609375 98.960938 L 44.609375 85.460938 C 44.609375 84.472656 43.898438 83.507812 42.695312 83.359375 L 42.695312 83.253906 L 50.351562 83.253906 C 55.15625 83.183594 55.730469 86.660156 55.730469 87.355469 C 55.730469 89.519531 54.296875 90.507812 53.007812 90.957031 C 54.550781 91.316406 56.414062 92.285156 56.414062 94.882812 " clip-rule="nonzero"/></clipPath><clipPath id="f90e1794c6"><path d="M 59.203125 83.246094 L 74.523438 83.246094 L 74.523438 98.964844 L 59.203125 98.964844 Z M 59.203125 83.246094 " clip-rule="nonzero"/></clipPath><clipPath id="4c48f34b85"><path d="M 74.449219 83.253906 L 68.785156 92.175781 L 68.785156 98.953125 L 66.421875 98.953125 L 66.421875 92.460938 L 61.121094 84.542969 C 60.945312 84.289062 60.710938 84.042969 60.457031 83.859375 L 59.898438 83.535156 L 59.214844 83.359375 L 59.214844 83.253906 L 61.550781 83.253906 C 62.46875 83.253906 63.355469 83.703125 63.914062 84.453125 L 68.335938 91.082031 L 73.304688 83.253906 Z M 74.449219 83.253906 " clip-rule="nonzero"/></clipPath><clipPath id="eb748bb65c"><path d="M 6.578125 118.761719 L 14.53125 118.761719 L 14.53125 128.128906 L 6.578125 128.128906 Z M 6.578125 118.761719 " clip-rule="nonzero"/></clipPath><clipPath id="d1c0abe02c"><path d="M 11.277344 118.8125 C 12.574219 118.8125 13.511719 119.261719 14.390625 120.003906 L 14.507812 120.257812 L 14.058594 120.707031 L 13.851562 120.824219 C 13.050781 120.121094 12.144531 119.730469 11.265625 119.730469 C 9.234375 119.730469 7.671875 121.4375 7.671875 123.441406 C 7.671875 125.421875 9.226562 127.128906 11.265625 127.128906 C 12.390625 127.128906 13.042969 126.679688 13.726562 126.164062 L 13.960938 126.078125 L 14.417969 126.476562 L 14.496094 126.730469 C 13.53125 127.667969 12.429688 128.066406 11.277344 128.066406 C 8.699219 128.078125 6.628906 126.027344 6.628906 123.460938 C 6.628906 120.890625 8.699219 118.8125 11.277344 118.8125 " clip-rule="nonzero"/></clipPath><clipPath id="748a45ae3c"><path d="M 19.660156 118.910156 L 25.308594 118.910156 L 25.308594 127.980469 L 19.660156 127.980469 Z M 19.660156 118.910156 " clip-rule="nonzero"/></clipPath><clipPath id="497262d2ed"><path d="M 19.730469 119.183594 L 19.828125 118.9375 L 25.042969 118.9375 C 25.1875 118.9375 25.285156 119.054688 25.285156 119.183594 L 25.285156 119.554688 L 25.179688 119.796875 L 20.71875 119.796875 L 20.71875 122.941406 L 24.40625 122.941406 C 24.535156 122.941406 24.652344 123.058594 24.652344 123.1875 L 24.652344 123.558594 L 24.535156 123.800781 L 20.71875 123.800781 L 20.71875 127.082031 L 25.042969 127.082031 C 25.1875 127.082031 25.285156 127.199219 25.285156 127.324219 L 25.285156 127.695312 L 25.179688 127.941406 L 19.976562 127.941406 C 19.828125 127.941406 19.730469 127.824219 19.730469 127.695312 Z M 19.730469 119.183594 " clip-rule="nonzero"/></clipPath><clipPath id="585737688e"><path d="M 30.660156 118.910156 L 35.714844 118.910156 L 35.714844 127.980469 L 30.660156 127.980469 Z M 30.660156 118.910156 " clip-rule="nonzero"/></clipPath><clipPath id="8c3ffc0367"><path d="M 30.695312 119.183594 L 30.800781 118.9375 L 31.445312 118.9375 L 31.691406 119.054688 L 31.691406 127.082031 L 35.402344 127.082031 C 35.546875 127.082031 35.644531 127.199219 35.644531 127.324219 L 35.644531 127.695312 L 35.546875 127.941406 L 30.9375 127.941406 C 30.800781 127.941406 30.695312 127.824219 30.695312 127.695312 Z M 30.695312 119.183594 " clip-rule="nonzero"/></clipPath><clipPath id="3cf7f6e988"><path d="M 40.324219 118.910156 L 45.972656 118.910156 L 45.972656 127.980469 L 40.324219 127.980469 Z M 40.324219 118.910156 " clip-rule="nonzero"/></clipPath><clipPath id="cde56b229e"><path d="M 40.359375 119.183594 L 40.46875 118.9375 L 45.683594 118.9375 C 45.820312 118.9375 45.925781 119.054688 45.925781 119.183594 L 45.925781 119.554688 L 45.820312 119.796875 L 41.347656 119.796875 L 41.347656 122.941406 L 45.039062 122.941406 C 45.164062 122.941406 45.28125 123.058594 45.28125 123.1875 L 45.28125 123.558594 L 45.164062 123.800781 L 41.347656 123.800781 L 41.347656 127.082031 L 45.671875 127.082031 C 45.808594 127.082031 45.917969 127.199219 45.917969 127.324219 L 45.917969 127.695312 L 45.808594 127.941406 L 40.605469 127.941406 C 40.457031 127.941406 40.359375 127.824219 40.359375 127.695312 Z M 40.359375 119.183594 " clip-rule="nonzero"/></clipPath><clipPath id="e04d35108b"><path d="M 51.324219 118.910156 L 57.34375 118.910156 L 57.34375 127.980469 L 51.324219 127.980469 Z M 51.324219 118.910156 " clip-rule="nonzero"/></clipPath><clipPath id="79cfc79504"><path d="M 54.390625 122.980469 C 55.378906 122.980469 55.933594 122.277344 55.933594 121.371094 C 55.933594 120.441406 55.378906 119.828125 54.390625 119.828125 L 52.292969 119.828125 L 52.292969 122.980469 Z M 54.605469 127.089844 C 55.542969 127.089844 56.226562 126.378906 56.226562 125.460938 C 56.226562 124.542969 55.386719 123.878906 54.382812 123.878906 L 52.261719 123.878906 L 52.261719 127.101562 Z M 51.324219 119.183594 L 51.433594 118.9375 L 54.390625 118.9375 C 55.964844 118.9375 57.027344 119.953125 57.027344 121.3125 C 57.027344 122.296875 56.375 123.019531 55.769531 123.371094 C 56.453125 123.65625 57.3125 124.289062 57.3125 125.472656 C 57.3125 126.914062 56.167969 127.949219 54.507812 127.949219 L 51.578125 127.949219 C 51.441406 127.949219 51.335938 127.832031 51.335938 127.707031 Z M 51.324219 119.183594 " clip-rule="nonzero"/></clipPath><clipPath id="b4f7d4d76b"><path d="M 62.695312 118.910156 L 69.164062 118.910156 L 69.164062 127.980469 L 62.695312 127.980469 Z M 62.695312 118.910156 " clip-rule="nonzero"/></clipPath><clipPath id="82704ff1d3"><path d="M 66.226562 123.578125 C 67.210938 123.578125 68.078125 122.757812 68.078125 121.703125 C 68.078125 120.726562 67.21875 119.886719 66.226562 119.886719 L 63.734375 119.886719 L 63.734375 123.578125 Z M 62.710938 119.183594 L 62.816406 118.9375 L 66.292969 118.9375 C 67.835938 118.9375 69.09375 120.148438 69.09375 121.683594 C 69.09375 122.863281 68.3125 123.859375 67.191406 124.308594 L 68.957031 127.578125 C 69.046875 127.746094 68.957031 127.949219 68.742188 127.949219 L 68.089844 127.949219 L 67.914062 127.882812 L 66.175781 124.425781 L 63.707031 124.425781 L 63.707031 127.707031 C 63.707031 127.832031 63.589844 127.949219 63.460938 127.949219 L 62.964844 127.949219 L 62.71875 127.832031 Z M 62.710938 119.183594 " clip-rule="nonzero"/></clipPath><clipPath id="1a226b0b65"><path d="M 73.25 118.761719 L 81.796875 118.761719 L 81.796875 127.980469 L 73.25 127.980469 Z M 73.25 118.761719 " clip-rule="nonzero"/></clipPath><clipPath id="3b2503dd8f"><path d="M 79.445312 124.886719 L 77.570312 120.667969 L 77.472656 120.667969 L 75.589844 124.886719 Z M 73.332031 127.609375 L 77.246094 118.949219 C 77.285156 118.871094 77.34375 118.800781 77.460938 118.800781 L 77.589844 118.800781 L 77.773438 118.871094 L 81.699219 127.609375 C 81.777344 127.773438 81.671875 127.941406 81.484375 127.941406 L 80.96875 127.941406 L 80.773438 127.863281 L 79.796875 125.675781 L 75.226562 125.675781 L 74.289062 127.792969 C 74.261719 127.863281 74.191406 127.941406 74.074219 127.941406 L 73.558594 127.941406 L 73.265625 127.773438 " clip-rule="nonzero"/></clipPath><clipPath id="8613d632cd"><path d="M 86.40625 118.761719 L 93.839844 118.761719 L 93.839844 128.128906 L 86.40625 128.128906 Z M 86.40625 118.761719 " clip-rule="nonzero"/></clipPath><clipPath id="0f8b3ce2f7"><path d="M 86.445312 119.046875 L 86.5625 118.8125 L 87.011719 118.8125 L 92.8125 126.046875 L 92.839844 126.046875 L 92.839844 119.183594 C 92.839844 119.054688 92.949219 118.9375 93.085938 118.9375 L 93.535156 118.9375 L 93.777344 119.054688 L 93.777344 127.84375 C 93.777344 127.96875 93.660156 128.078125 93.535156 128.078125 L 93.300781 128.078125 L 87.390625 120.707031 L 87.390625 127.707031 C 87.390625 127.832031 87.285156 127.949219 87.148438 127.949219 L 86.6875 127.949219 L 86.445312 127.832031 Z M 86.445312 119.046875 " clip-rule="nonzero"/></clipPath><clipPath id="d7dacdf9e5"><path d="M 98.523438 118.910156 L 104.542969 118.910156 L 104.542969 127.980469 L 98.523438 127.980469 Z M 98.523438 118.910156 " clip-rule="nonzero"/></clipPath><clipPath id="a5713c823f"><path d="M 101.03125 119.796875 L 98.796875 119.796875 C 98.660156 119.796875 98.550781 119.679688 98.550781 119.554688 L 98.550781 119.183594 L 98.660156 118.9375 L 104.253906 118.9375 C 104.398438 118.9375 104.496094 119.054688 104.496094 119.183594 L 104.496094 119.554688 L 104.398438 119.796875 L 102.019531 119.796875 L 102.019531 127.695312 C 102.019531 127.824219 101.902344 127.941406 101.773438 127.941406 L 101.285156 127.941406 L 101.042969 127.824219 Z M 101.03125 119.796875 " clip-rule="nonzero"/></clipPath><clipPath id="f47bd458db"><path d="M 115.136719 116.625 L 115.703125 116.625 L 115.703125 130.261719 L 115.136719 130.261719 Z M 115.136719 116.625 " clip-rule="nonzero"/></clipPath><clipPath id="41ce09c840"><path d="M 115.136719 116.871094 L 115.253906 116.625 L 115.46875 116.625 L 115.703125 116.734375 L 115.703125 130.023438 C 115.703125 130.152344 115.585938 130.257812 115.460938 130.257812 L 115.382812 130.257812 L 115.136719 130.152344 Z M 115.136719 116.871094 " clip-rule="nonzero"/></clipPath><clipPath id="831d874d36"><path d="M 67.96875 0.128906 L 129.40625 0.128906 L 129.40625 33 L 67.96875 33 Z M 67.96875 0.128906 " clip-rule="nonzero"/></clipPath><clipPath id="d7c496bc8e"><path d="M 129.214844 22.738281 C 129.957031 15.992188 126.761719 11.304688 125.007812 6.660156 C 124.832031 6.589844 123.523438 2.703125 122.800781 1.054688 L 122.566406 0.175781 L 121.34375 0.390625 C 118.394531 1.582031 115.878906 3.132812 113.339844 4.726562 L 107.199219 9 C 106.640625 9.324219 104.980469 10.542969 104.726562 10.730469 L 103.195312 12.332031 C 103.066406 12.3125 102.539062 12.371094 102.539062 12.371094 C 102.726562 12.351562 93.96875 12.339844 92.386719 12.332031 L 90.785156 10.464844 C 90.199219 9.929688 89.105469 9.234375 88.851562 8.863281 L 88.453125 8.515625 C 85.445312 6.425781 82.234375 4.988281 78.707031 3.535156 L 78.238281 3.339844 C 76.648438 2.714844 74.957031 2.078125 73.515625 1.464844 L 72.792969 1.101562 C 71.355469 4.011719 70.449219 6.316406 69.84375 9.128906 C 69.753906 9.519531 69.472656 10.699219 69.304688 11.324219 L 68.925781 12.652344 C 68.660156 13.453125 68.242188 15.066406 68.171875 15.601562 L 67.976562 19.535156 C 68.066406 23.453125 68.699219 27.40625 69.980469 30.34375 L 70.136719 30.851562 C 70.703125 31.476562 71.433594 31.085938 72.578125 31.144531 L 73.183594 32.140625 C 73.738281 33.234375 73.847656 32.953125 74.179688 32.875 C 78.140625 31.175781 82.429688 29.066406 85.453125 27.40625 L 85.589844 27.335938 C 88.121094 26.097656 90.667969 24.898438 92.921875 23.402344 C 92.953125 23.851562 95.480469 23.558594 96.457031 23.578125 L 97.621094 23.597656 C 98.644531 23.617188 98.878906 23.609375 99.074219 23.617188 C 99.144531 23.617188 101.914062 23.6875 102.121094 23.734375 L 103.300781 23.960938 C 105.46875 25.394531 112.402344 28.402344 113.328125 28.800781 L 116.132812 30.070312 C 118.679688 31.136719 121.324219 32.394531 124.273438 32.738281 L 124.421875 31.417969 C 125.386719 31.300781 125.902344 31.378906 126.332031 31.136719 L 128.070312 26.867188 C 128.550781 25.667969 129.046875 24.164062 129.203125 22.730469 " clip-rule="nonzero"/></clipPath><clipPath id="3ab2d362bf"><path d="M 126.851562 118.761719 L 136.738281 118.761719 L 136.738281 128.128906 L 126.851562 128.128906 Z M 126.851562 118.761719 " clip-rule="nonzero"/></clipPath><clipPath id="49c5e57bb7"><path d="M 128.574219 118.988281 L 128.699219 118.8125 L 129.011719 118.8125 L 129.207031 118.878906 L 131.785156 126.046875 L 131.851562 126.046875 L 134.363281 118.957031 C 134.390625 118.878906 134.488281 118.8125 134.578125 118.8125 L 134.78125 118.8125 L 134.988281 118.890625 L 136.667969 127.636719 C 136.707031 127.8125 136.628906 127.949219 136.433594 127.949219 L 135.914062 127.949219 L 135.710938 127.863281 L 134.539062 121.144531 L 134.488281 121.144531 L 132.117188 127.941406 C 132.085938 128.019531 131.96875 128.078125 131.902344 128.078125 L 131.675781 128.078125 L 131.480469 128.007812 L 129.0625 121.144531 L 129.011719 121.144531 L 127.890625 127.765625 C 127.878906 127.851562 127.761719 127.941406 127.65625 127.941406 L 127.148438 127.941406 L 126.875 127.8125 Z M 128.574219 118.988281 " clip-rule="nonzero"/></clipPath><clipPath id="8a203e8fe7"><path d="M 141.347656 118.761719 L 149.226562 118.761719 L 149.226562 128.128906 L 141.347656 128.128906 Z M 141.347656 118.761719 " clip-rule="nonzero"/></clipPath><clipPath id="09943a9685"><path d="M 145.992188 118.8125 C 147.289062 118.8125 148.226562 119.261719 149.105469 120.003906 L 149.222656 120.257812 L 148.773438 120.707031 L 148.566406 120.824219 C 147.765625 120.121094 146.859375 119.730469 145.980469 119.730469 C 143.949219 119.730469 142.386719 121.4375 142.386719 123.441406 C 142.386719 125.421875 143.949219 127.128906 145.980469 127.128906 C 147.105469 127.128906 147.757812 126.679688 148.441406 126.164062 L 148.675781 126.078125 L 149.144531 126.476562 L 149.222656 126.730469 C 148.253906 127.667969 147.152344 128.066406 146.011719 128.066406 C 143.433594 128.066406 141.363281 126.019531 141.363281 123.449219 C 141.363281 120.882812 143.414062 118.8125 145.992188 118.8125 " clip-rule="nonzero"/></clipPath><clipPath id="b7824cdc75"><path d="M 87.910156 83.207031 L 100 83.207031 L 100 99 L 87.910156 99 Z M 87.910156 83.207031 " clip-rule="nonzero"/></clipPath><clipPath id="6e31bc303c"><path d="M 99.925781 97.996094 L 99.925781 98.960938 L 89.839844 98.960938 L 89.839844 85.441406 C 89.839844 84.511719 89.265625 83.722656 87.957031 83.359375 L 87.957031 83.253906 L 91.988281 83.253906 L 91.988281 97.996094 Z M 99.925781 97.996094 " clip-rule="nonzero"/></clipPath><clipPath id="5cb452983b"><path d="M 103.527344 83.207031 L 117.835938 83.207031 L 117.835938 99.328125 L 103.527344 99.328125 Z M 103.527344 83.207031 " clip-rule="nonzero"/></clipPath><clipPath id="ffa136255e"><path d="M 117.734375 83.253906 L 117.734375 93.894531 C 117.734375 94.863281 117.558594 99.273438 111.625 99.273438 C 111.625 99.273438 105.492188 99.578125 105.492188 93.894531 L 105.492188 85.441406 C 105.492188 84.523438 104.886719 83.722656 103.578125 83.359375 L 103.578125 83.253906 L 107.84375 83.253906 L 107.84375 93.894531 C 107.84375 98.609375 111.839844 98.335938 111.839844 98.335938 C 113.078125 98.335938 116.769531 97.847656 116.769531 93.894531 L 116.769531 83.253906 Z M 117.734375 83.253906 " clip-rule="nonzero"/></clipPath><clipPath id="2111e7948d"><path d="M 122.167969 83.207031 L 138.589844 83.207031 L 138.589844 99 L 122.167969 99 Z M 122.167969 83.207031 " clip-rule="nonzero"/></clipPath><clipPath id="bc25d95d6a"><path d="M 138.492188 98.84375 L 138.492188 98.953125 L 136.394531 98.953125 C 135.210938 98.953125 134.050781 98.503906 133.21875 97.664062 C 133.199219 97.664062 126.503906 91.179688 126.503906 91.179688 L 126.503906 98.941406 L 124.140625 98.941406 L 124.140625 85.441406 C 124.140625 84.523438 123.5625 83.722656 122.226562 83.359375 L 122.226562 83.253906 L 126.492188 83.253906 L 126.492188 90.847656 L 134.304688 83.253906 L 135.679688 83.253906 L 128.5625 90.183594 L 136.285156 97.671875 C 136.570312 97.957031 136.890625 98.191406 137.214844 98.355469 L 137.917969 98.699219 Z M 138.492188 98.84375 " clip-rule="nonzero"/></clipPath><clipPath id="f1b8f721c2"><path d="M 141.613281 83.207031 L 153.601562 83.207031 L 153.601562 99 L 141.613281 99 Z M 141.613281 83.207031 " clip-rule="nonzero"/></clipPath><clipPath id="a9bf024f77"><path d="M 153.507812 98.140625 L 153.507812 98.953125 L 143.617188 98.953125 L 143.617188 85.441406 C 143.617188 84.523438 143.011719 83.722656 141.703125 83.359375 L 141.703125 83.253906 L 153.507812 83.253906 L 153.507812 84.0625 L 145.980469 84.0625 L 145.980469 90.28125 L 152.269531 90.28125 L 152.269531 91.25 L 145.980469 91.25 L 145.980469 98.132812 Z M 153.507812 98.140625 " clip-rule="nonzero"/></clipPath><clipPath id="ed9fd37fd4"><path d="M 160.324219 116.625 L 160.890625 116.625 L 160.890625 130.261719 L 160.324219 130.261719 Z M 160.324219 116.625 " clip-rule="nonzero"/></clipPath><clipPath id="3497644f48"><path d="M 160.324219 116.871094 L 160.441406 116.625 L 160.65625 116.625 L 160.890625 116.734375 L 160.890625 130.023438 C 160.890625 130.152344 160.773438 130.257812 160.644531 130.257812 L 160.566406 130.257812 L 160.324219 130.152344 Z M 160.324219 116.871094 " clip-rule="nonzero"/></clipPath><clipPath id="424b4b270d"><path d="M 5 43.695312 L 34.703125 43.695312 L 34.703125 69.425781 L 5 69.425781 Z M 5 43.695312 " clip-rule="nonzero"/></clipPath><clipPath id="a47d5d91df"><path d="M 34.636719 69.347656 L 34.5 69.386719 L 30.75 69.386719 L 27.703125 51.792969 L 18.175781 69.375 L 9.457031 52.953125 L 7.5625 69.375 L 5.992188 69.375 L 7.808594 53.480469 C 8.023438 51.265625 8.929688 45.386719 5.003906 44.46875 L 5.003906 44.292969 C 9.972656 44.429688 11.664062 48.949219 12.992188 51.402344 L 19.40625 63.625 L 30.234375 43.738281 Z M 34.636719 69.347656 " clip-rule="nonzero"/></clipPath><clipPath id="ae5ec7c8a6"><path d="M 42.589844 43.695312 L 65.964844 43.695312 L 65.964844 69.425781 L 42.589844 69.425781 Z M 42.589844 43.695312 " clip-rule="nonzero"/></clipPath><clipPath id="7829734b00"><path d="M 47.183594 63.214844 L 58.890625 63.214844 L 52.972656 50.328125 Z M 42.703125 69.375 L 54.191406 43.738281 L 65.957031 69.375 L 61.71875 69.375 L 59.515625 64.542969 L 46.585938 64.542969 L 44.417969 69.375 Z M 42.703125 69.375 " clip-rule="nonzero"/></clipPath><clipPath id="7c1c2789cd"><path d="M 71.082031 43.695312 L 93.628906 43.695312 L 93.628906 69.425781 L 71.082031 69.425781 Z M 71.082031 43.695312 " clip-rule="nonzero"/></clipPath><clipPath id="7268bf3b2b"><path d="M 84.988281 55.015625 L 85.476562 54.378906 C 85.828125 53.609375 85.964844 53.148438 86.070312 52.699219 L 86.207031 51.507812 C 86.03125 45.339844 81.726562 44.957031 80.953125 44.957031 L 78.191406 44.957031 L 78.191406 56.480469 L 80.953125 56.480469 C 81.414062 56.480469 81.863281 56.441406 82.320312 56.371094 L 84.214844 55.707031 C 84.5 55.503906 84.742188 55.289062 84.988281 55.003906 M 93.570312 69.367188 L 89.222656 69.367188 L 81.0625 57.824219 C 80.007812 57.863281 79.03125 57.863281 78.191406 57.863281 L 78.191406 69.386719 L 74.335938 69.386719 L 74.335938 47.351562 C 74.335938 45.738281 73.171875 44.167969 71.21875 43.914062 L 71.21875 43.738281 L 78.191406 43.738281 C 82.222656 43.738281 90.347656 43.628906 90.347656 50.914062 C 90.347656 55.015625 87.855469 56.761719 85.027344 57.503906 Z M 93.570312 69.367188 " clip-rule="nonzero"/></clipPath><clipPath id="320dfae51e"><path d="M 98.75 43.695312 L 121.296875 43.695312 L 121.296875 69.425781 L 98.75 69.425781 Z M 98.75 43.695312 " clip-rule="nonzero"/></clipPath><clipPath id="9181b48f86"><path d="M 112.589844 55.015625 L 113.074219 54.378906 C 113.425781 53.609375 113.5625 53.148438 113.671875 52.699219 L 113.808594 51.507812 C 113.632812 45.339844 109.328125 44.957031 108.554688 44.957031 L 105.792969 44.957031 L 105.792969 56.480469 L 108.554688 56.480469 C 109.015625 56.480469 109.464844 56.441406 109.921875 56.371094 L 111.816406 55.707031 C 112.101562 55.503906 112.34375 55.289062 112.589844 55.003906 M 121.171875 69.367188 L 116.824219 69.367188 L 108.664062 57.804688 C 107.609375 57.84375 106.632812 57.84375 105.792969 57.84375 L 105.792969 69.367188 L 101.9375 69.367188 L 101.9375 47.351562 C 101.9375 45.738281 100.785156 44.167969 98.820312 43.914062 L 98.820312 43.738281 L 105.792969 43.738281 C 109.824219 43.738281 117.949219 43.628906 117.949219 50.914062 C 117.949219 55.015625 115.457031 56.761719 112.628906 57.503906 Z M 121.171875 69.367188 " clip-rule="nonzero"/></clipPath><clipPath id="b3dd3bc58a"><path d="M 126.414062 43.695312 L 133.050781 43.695312 L 133.050781 69.425781 L 126.414062 69.425781 Z M 126.414062 43.695312 " clip-rule="nonzero"/></clipPath><clipPath id="355996f406"><path d="M 133.050781 43.738281 L 133.050781 69.375 L 129.546875 69.375 L 129.546875 47.3125 C 129.546875 45.808594 128.601562 44.507812 126.433594 43.914062 L 126.433594 43.738281 Z M 133.050781 43.738281 " clip-rule="nonzero"/></clipPath><clipPath id="4924864094"><path d="M 140.382812 43.695312 L 159.75 43.695312 L 159.75 69.425781 L 140.382812 69.425781 Z M 140.382812 43.695312 " clip-rule="nonzero"/></clipPath><clipPath id="d0a8f33f4c"><path d="M 159.675781 68.046875 L 159.675781 69.375 L 143.527344 69.375 L 143.527344 47.3125 C 143.527344 45.808594 142.550781 44.507812 140.414062 43.914062 L 140.414062 43.738281 L 159.675781 43.738281 L 159.675781 45.066406 L 147.375 45.066406 L 147.375 55.230469 L 157.636719 55.230469 L 157.636719 56.800781 L 147.375 56.800781 L 147.375 68.046875 Z M 159.675781 68.046875 " clip-rule="nonzero"/></clipPath><clipPath id="ec41923013"><path d="M 168.046875 43.695312 L 193.636719 43.695312 L 193.636719 69.425781 L 168.046875 69.425781 Z M 168.046875 43.695312 " clip-rule="nonzero"/></clipPath><clipPath id="755c3cb329"><path d="M 189.242188 56.558594 C 189.203125 44.996094 181.039062 44.996094 179.359375 44.996094 L 175.054688 44.996094 L 175.054688 68.046875 L 179.359375 68.046875 C 180.6875 68.046875 189.308594 68.007812 189.242188 56.558594 M 193.515625 56.558594 C 193.515625 69.972656 179.683594 69.375 179.359375 69.375 L 171.199219 69.375 L 171.199219 47.3125 C 171.199219 45.730469 170.046875 44.117188 168.082031 43.914062 L 168.082031 43.738281 L 179.359375 43.738281 C 179.671875 43.777344 193.515625 42.925781 193.515625 56.558594 " clip-rule="nonzero"/></clipPath><clipPath id="78013dbd72"><path d="M 172.734375 118.929688 L 180.414062 118.929688 L 180.414062 128 L 172.734375 128 Z M 172.734375 118.929688 " clip-rule="nonzero"/></clipPath><clipPath id="a45565aae1"><path d="M 175.652344 127.0625 C 177.761719 127.0625 179.292969 125.558594 179.292969 123.429688 C 179.292969 121.324219 177.761719 119.820312 175.652344 119.820312 L 173.71875 119.820312 L 173.71875 127.0625 Z M 172.742188 119.183594 L 172.851562 118.941406 L 175.859375 118.941406 C 178.335938 118.941406 180.378906 120.960938 180.378906 123.429688 C 180.378906 125.929688 178.347656 127.953125 175.859375 127.953125 L 172.976562 127.953125 C 172.851562 127.953125 172.742188 127.835938 172.742188 127.707031 Z M 172.742188 119.183594 " clip-rule="nonzero"/></clipPath><clipPath id="f3718e00bd"><path d="M 183.957031 118.929688 L 188.605469 118.929688 L 188.605469 128.085938 L 183.957031 128.085938 Z M 183.957031 118.929688 " clip-rule="nonzero"/></clipPath><clipPath id="911a782ea9"><path d="M 184.019531 126.800781 L 184.292969 126.488281 L 184.605469 126.378906 L 185.417969 127.199219 C 186.753906 127.199219 187.554688 126.632812 187.554688 125.265625 L 187.554688 119.183594 C 187.554688 119.058594 187.660156 118.941406 187.796875 118.941406 L 188.304688 118.941406 L 188.550781 119.058594 L 188.550781 125.257812 C 188.550781 127.042969 187.464844 128.078125 185.964844 128.078125 C 184.839844 128.078125 184.226562 127.394531 184.011719 127.132812 L 183.960938 126.898438 " clip-rule="nonzero"/></clipPath></defs><g clip-path="url(#f7be0a1246)"><path fill="#ffffff" d="M 0.125 0 L 198.878906 0 L 198.878906 133 L 0.125 133 Z M 0.125 0 " fill-opacity="1" fill-rule="nonzero"/></g><g clip-path="url(#3e4212ac9c)"><g clip-path="url(#cb483088df)"><path fill="#090f10" d="M 37.816406 78.371094 L 79.300781 78.371094 L 79.300781 103.839844 L 37.816406 103.839844 Z M 37.816406 78.371094 " fill-opacity="1" fill-rule="nonzero"/></g></g><g clip-path="url(#f90e1794c6)"><g clip-path="url(#4c48f34b85)"><path fill="#090f10" d="M 37.816406 78.371094 L 79.300781 78.371094 L 79.300781 103.839844 L 37.816406 103.839844 Z M 37.816406 78.371094 " fill-opacity="1" fill-rule="nonzero"/></g></g><g clip-path="url(#eb748bb65c)"><g clip-path="url(#d1c0abe02c)"><path fill="#090f10" d="M 1.746094 113.929688 L 109.375 113.929688 L 109.375 132.957031 L 1.746094 132.957031 Z M 1.746094 113.929688 " fill-opacity="1" fill-rule="nonzero"/></g></g><g clip-path="url(#748a45ae3c)"><g clip-path="url(#497262d2ed)"><path fill="#090f10" d="M 1.746094 113.929688 L 109.375 113.929688 L 109.375 132.957031 L 1.746094 132.957031 Z M 1.746094 113.929688 " fill-opacity="1" fill-rule="nonzero"/></g></g><g clip-path="url(#585737688e)"><g clip-path="url(#8c3ffc0367)"><path fill="#090f10" d="M 1.746094 113.929688 L 109.375 113.929688 L 109.375 132.957031 L 1.746094 132.957031 Z M 1.746094 113.929688 " fill-opacity="1" fill-rule="nonzero"/></g></g><g clip-path="url(#3cf7f6e988)"><g clip-path="url(#cde56b229e)"><path fill="#090f10" d="M 1.746094 113.929688 L 109.375 113.929688 L 109.375 132.957031 L 1.746094 132.957031 Z M 1.746094 113.929688 " fill-opacity="1" fill-rule="nonzero"/></g></g><g clip-path="url(#e04d35108b)"><g clip-path="url(#79cfc79504)"><path fill="#090f10" d="M 1.746094 113.929688 L 109.375 113.929688 L 109.375 132.957031 L 1.746094 132.957031 Z M 1.746094 113.929688 " fill-opacity="1" fill-rule="nonzero"/></g></g><g clip-path="url(#b4f7d4d76b)"><g clip-path="url(#82704ff1d3)"><path fill="#090f10" d="M 1.746094 113.929688 L 109.375 113.929688 L 109.375 132.957031 L 1.746094 132.957031 Z M 1.746094 113.929688 " fill-opacity="1" fill-rule="nonzero"/></g></g><g clip-path="url(#1a226b0b65)"><g clip-path="url(#3b2503dd8f)"><path fill="#090f10" d="M 1.746094 113.929688 L 109.375 113.929688 L 109.375 132.957031 L 1.746094 132.957031 Z M 1.746094 113.929688 " fill-opacity="1" fill-rule="nonzero"/></g></g><g clip-path="url(#8613d632cd)"><g clip-path="url(#0f8b3ce2f7)"><path fill="#090f10" d="M 1.746094 113.929688 L 109.375 113.929688 L 109.375 132.957031 L 1.746094 132.957031 Z M 1.746094 113.929688 " fill-opacity="1" fill-rule="nonzero"/></g></g><g clip-path="url(#d7dacdf9e5)"><g clip-path="url(#a5713c823f)"><path fill="#090f10" d="M 1.746094 113.929688 L 109.375 113.929688 L 109.375 132.957031 L 1.746094 132.957031 Z M 1.746094 113.929688 " fill-opacity="1" fill-rule="nonzero"/></g></g><g clip-path="url(#f47bd458db)"><g clip-path="url(#41ce09c840)"><path fill="#090f10" d="M 115.136719 116.625 L 115.703125 116.625 L 115.703125 130.257812 L 115.136719 130.257812 Z M 115.136719 116.625 " fill-opacity="1" fill-rule="nonzero"/></g></g><g clip-path="url(#831d874d36)"><g clip-path="url(#d7c496bc8e)"><path fill="#231f20" d="M 67.96875 0 L 129.273438 0 L 129.273438 33.042969 L 67.96875 33.042969 Z M 67.96875 0 " fill-opacity="1" fill-rule="nonzero"/></g></g><g clip-path="url(#3ab2d362bf)"><g clip-path="url(#49c5e57bb7)"><path fill="#090f10" d="M 122.019531 113.929688 L 154.058594 113.929688 L 154.058594 132.960938 L 122.019531 132.960938 Z M 122.019531 113.929688 " fill-opacity="1" fill-rule="nonzero"/></g></g><g clip-path="url(#8a203e8fe7)"><g clip-path="url(#09943a9685)"><path fill="#090f10" d="M 122.019531 113.929688 L 154.058594 113.929688 L 154.058594 132.960938 L 122.019531 132.960938 Z M 122.019531 113.929688 " fill-opacity="1" fill-rule="nonzero"/></g></g><g clip-path="url(#b7824cdc75)"><g clip-path="url(#6e31bc303c)"><path fill="#090f10" d="M 83.074219 78.371094 L 158.4375 78.371094 L 158.4375 104.164062 L 83.074219 104.164062 Z M 83.074219 78.371094 " fill-opacity="1" fill-rule="nonzero"/></g></g><g clip-path="url(#5cb452983b)"><g clip-path="url(#ffa136255e)"><path fill="#090f10" d="M 83.074219 78.371094 L 158.4375 78.371094 L 158.4375 104.164062 L 83.074219 104.164062 Z M 83.074219 78.371094 " fill-opacity="1" fill-rule="nonzero"/></g></g><g clip-path="url(#2111e7948d)"><g clip-path="url(#bc25d95d6a)"><path fill="#090f10" d="M 83.074219 78.371094 L 158.4375 78.371094 L 158.4375 104.164062 L 83.074219 104.164062 Z M 83.074219 78.371094 " fill-opacity="1" fill-rule="nonzero"/></g></g><g clip-path="url(#f1b8f721c2)"><g clip-path="url(#a9bf024f77)"><path fill="#090f10" d="M 83.074219 78.371094 L 158.4375 78.371094 L 158.4375 104.164062 L 83.074219 104.164062 Z M 83.074219 78.371094 " fill-opacity="1" fill-rule="nonzero"/></g></g><g clip-path="url(#ed9fd37fd4)"><g clip-path="url(#3497644f48)"><path fill="#090f10" d="M 160.324219 116.625 L 160.890625 116.625 L 160.890625 130.257812 L 160.324219 130.257812 Z M 160.324219 116.625 " fill-opacity="1" fill-rule="nonzero"/></g></g><g clip-path="url(#424b4b270d)"><g clip-path="url(#a47d5d91df)"><path fill="#090f10" d="M 0.125 38.855469 L 198.339844 38.855469 L 198.339844 74.265625 L 0.125 74.265625 Z M 0.125 38.855469 " fill-opacity="1" fill-rule="nonzero"/></g></g><g clip-path="url(#ae5ec7c8a6)"><g clip-path="url(#7829734b00)"><path fill="#090f10" d="M 0.125 38.855469 L 198.339844 38.855469 L 198.339844 74.265625 L 0.125 74.265625 Z M 0.125 38.855469 " fill-opacity="1" fill-rule="nonzero"/></g></g><g clip-path="url(#7c1c2789cd)"><g clip-path="url(#7268bf3b2b)"><path fill="#090f10" d="M 0.125 38.855469 L 198.339844 38.855469 L 198.339844 74.265625 L 0.125 74.265625 Z M 0.125 38.855469 " fill-opacity="1" fill-rule="nonzero"/></g></g><g clip-path="url(#320dfae51e)"><g clip-path="url(#9181b48f86)"><path fill="#090f10" d="M 0.125 38.855469 L 198.339844 38.855469 L 198.339844 74.265625 L 0.125 74.265625 Z M 0.125 38.855469 " fill-opacity="1" fill-rule="nonzero"/></g></g><g clip-path="url(#b3dd3bc58a)"><g clip-path="url(#355996f406)"><path fill="#090f10" d="M 0.125 38.855469 L 198.339844 38.855469 L 198.339844 74.265625 L 0.125 74.265625 Z M 0.125 38.855469 " fill-opacity="1" fill-rule="nonzero"/></g></g><g clip-path="url(#4924864094)"><g clip-path="url(#d0a8f33f4c)"><path fill="#090f10" d="M 0.125 38.855469 L 198.339844 38.855469 L 198.339844 74.265625 L 0.125 74.265625 Z M 0.125 38.855469 " fill-opacity="1" fill-rule="nonzero"/></g></g><g clip-path="url(#ec41923013)"><g clip-path="url(#755c3cb329)"><path fill="#090f10" d="M 0.125 38.855469 L 198.339844 38.855469 L 198.339844 74.265625 L 0.125 74.265625 Z M 0.125 38.855469 " fill-opacity="1" fill-rule="nonzero"/></g></g><g clip-path="url(#78013dbd72)"><g clip-path="url(#a45565aae1)"><path fill="#090f10" d="M 167.863281 114.058594 L 193.40625 114.058594 L 193.40625 132.957031 L 167.863281 132.957031 Z M 167.863281 114.058594 " fill-opacity="1" fill-rule="nonzero"/></g></g><g clip-path="url(#f3718e00bd)"><g clip-path="url(#911a782ea9)"><path fill="#090f10" d="M 167.863281 114.058594 L 193.40625 114.058594 L 193.40625 132.957031 L 167.863281 132.957031 Z M 167.863281 114.058594 " fill-opacity="1" fill-rule="nonzero"/></g></g></svg>